<svg width="62" height="46" viewBox="0 0 62 46" fill="none" xmlns="http://www.w3.org/2000/svg">
<path d="M49.459 8.34833H36.9616V4.53717C36.9616 3.93748 36.8428 3.34373 36.612 2.79027C36.3812 2.2368 36.0429 1.7346 35.6169 1.3127C35.1908 0.890798 34.6853 0.557573 34.1297 0.332294C33.574 0.107016 32.9793 -0.005847 32.3798 0.000233219H4.53502C3.93799 -0.0048567 3.34593 0.109027 2.79337 0.33524C2.24081 0.561452 1.73882 0.895463 1.31669 1.31779C0.894561 1.74011 0.560742 2.24229 0.334707 2.79503C0.108672 3.34777 -0.00505116 3.94 0.000172095 4.53717V35.5001C-0.00505116 36.0973 0.108672 36.6895 0.334707 37.2422C0.560742 37.795 0.894561 38.2971 1.31669 38.7195C1.73882 39.1418 2.24081 39.4758 2.79337 39.702C3.34593 39.9282 3.93799 40.0421 4.53502 40.037H7.70314C7.98457 41.7043 8.84731 43.218 10.1383 44.3095C11.4293 45.4011 13.0652 46 14.7556 46C16.4461 46 18.0819 45.4011 19.3729 44.3095C20.6639 43.218 21.5267 41.7043 21.8081 40.037H40.0657C40.3471 41.7043 41.2099 43.218 42.5009 44.3095C43.7919 45.4011 45.4277 46 47.1182 46C48.8086 46 50.4445 45.4011 51.7355 44.3095C53.0265 43.218 53.8892 41.7043 54.1706 40.037H57.3388C59.8729 40.037 62 38.0364 62 35.5001V20.2401C62 20.2304 61.9668 20.2209 61.9659 20.2111C61.9659 20.1892 61.9319 20.1674 61.9307 20.1456C61.9293 20.1275 61.9274 20.1096 61.9252 20.0917C61.9227 20.0711 61.9194 20.0508 61.9159 20.0304C61.9123 20.0099 61.909 19.9934 61.9048 19.9752C61.9005 19.957 61.8954 19.9367 61.89 19.9176C61.8845 19.8985 61.8796 19.8808 61.8729 19.8627C61.8663 19.8447 61.8598 19.8256 61.8527 19.8072C61.8455 19.7888 61.8387 19.7718 61.8309 19.7544C61.823 19.737 61.8138 19.7188 61.8051 19.7011C61.7965 19.6833 61.7881 19.667 61.7781 19.6499C61.768 19.6329 61.7583 19.6159 61.7479 19.6004C61.7375 19.5849 61.7259 19.5663 61.7138 19.5503C61.7018 19.5343 61.692 19.5205 61.6806 19.5058C61.6692 19.4912 61.6535 19.4717 61.6394 19.4561C61.6329 19.4487 61.6273 19.4407 61.6205 19.4334L52.8457 9.85371C52.4154 9.38284 51.8924 9.00605 51.3096 8.74699C50.7268 8.48793 50.0968 8.3522 49.459 8.34833V8.34833ZM14.7548 43.6778C13.8115 43.6778 12.8894 43.398 12.1051 42.8739C11.3208 42.3497 10.7096 41.6047 10.3486 40.733C9.98762 39.8613 9.89317 38.9022 10.0772 37.9768C10.2612 37.0515 10.7154 36.2015 11.3824 35.5343C12.0494 34.8672 12.8992 34.4129 13.8243 34.2288C14.7495 34.0447 15.7084 34.1392 16.5799 34.5003C17.4513 34.8613 18.1962 35.4727 18.7202 36.2572C19.2443 37.0417 19.524 37.964 19.524 38.9075C19.5225 40.1722 19.0196 41.3847 18.1255 42.279C17.2314 43.1733 16.0192 43.6764 14.7548 43.6778ZM34.577 20.2401V37.6519H21.8072C21.2378 34.4148 18.293 31.6889 14.7556 31.6889C11.2182 31.6889 8.27255 34.4148 7.70399 37.6519H4.53502C4.25104 37.6574 3.96888 37.6055 3.70544 37.4993C3.442 37.3931 3.20272 37.2348 3.00193 37.0338C2.80113 36.8329 2.64298 36.5935 2.53693 36.3299C2.43088 36.0664 2.37913 35.7841 2.38478 35.5001V4.53717C2.37913 4.25313 2.43088 3.97087 2.53693 3.70732C2.64298 3.44377 2.80113 3.20435 3.00193 3.00342C3.20272 2.80249 3.442 2.64418 3.70544 2.53798C3.96888 2.43178 4.25104 2.37989 4.53502 2.3854H32.3798C32.6662 2.37895 32.951 2.42986 33.2175 2.53513C33.484 2.64041 33.7267 2.79792 33.9315 2.99841C34.1362 3.1989 34.2988 3.43831 34.4096 3.70257C34.5205 3.96683 34.5774 4.25059 34.577 4.53717V20.2401ZM47.1173 43.6778C46.1741 43.6778 45.252 43.398 44.4677 42.8739C43.6834 42.3497 43.0721 41.6047 42.7111 40.733C42.3502 39.8613 42.2557 38.9022 42.4397 37.9768C42.6238 37.0515 43.078 36.2015 43.745 35.5343C44.412 34.8672 45.2617 34.4129 46.1869 34.2288C47.112 34.0447 48.071 34.1392 48.9424 34.5003C49.8139 34.8613 50.5587 35.4727 51.0828 36.2572C51.6068 37.0417 51.8865 37.964 51.8865 38.9075C51.8851 40.1722 51.3822 41.3847 50.4881 42.279C49.594 43.1733 48.3817 43.6764 47.1173 43.6778ZM59.6154 35.5001C59.6154 36.7213 58.558 37.6519 57.3371 37.6519H54.1689C53.5995 34.4148 50.6547 31.6889 47.1173 31.6889C43.5799 31.6889 40.6342 34.4148 40.0648 37.6519H36.9616V21.4668H59.6154V35.5001ZM36.9616 19.0816V10.7335H49.459C49.7678 10.74 50.072 10.8101 50.3526 10.9392C50.6333 11.0683 50.8843 11.2538 51.0902 11.4841L58.0313 19.0816H36.9616Z" fill="#1D1D1B"/>
<path d="M27.3981 11.0674L19.0675 6.15842C18.8906 6.05462 18.6902 6 18.4863 6C18.2823 6 18.0819 6.05462 17.9051 6.15842L9.58206 11.0674C9.40577 11.1709 9.2592 11.32 9.15704 11.4996C9.05488 11.6793 9.00072 11.8833 9 12.091V21.909C9.00001 22.1165 9.05345 22.3203 9.15495 22.5C9.25646 22.6797 9.40245 22.8289 9.57826 22.9327L17.8978 27.8416C18.0736 27.9454 18.273 28 18.476 28C18.6791 28 18.8785 27.9454 19.0543 27.8416L27.3968 22.9327C27.5757 22.8304 27.7255 22.6822 27.8313 22.5026C27.9371 22.3231 27.9952 22.1185 28 21.909V12.091C27.9953 11.8817 27.9374 11.6772 27.8318 11.4977C27.7263 11.3182 27.5768 11.1699 27.3981 11.0674V11.0674ZM18.4774 8.54698L20.2417 9.58818L14.2362 13.1319L12.4719 12.0907L18.4774 8.54698ZM17.2609 24.7714L11.313 21.2273V14.1385L17.2609 17.6826V24.7714ZM18.4774 15.636L16.5493 14.4982L22.5548 10.9544L24.4829 12.0921L18.4774 15.636ZM25.687 21.2266L19.5739 24.7714V17.6826L25.687 14.1385V21.2266Z" fill="#1D1D1B"/>
</svg>
