<svg width="50" height="56" viewBox="0 0 50 56" fill="none" xmlns="http://www.w3.org/2000/svg">
<path d="M44.282 19.1562C44.282 8.57653 35.7055 0 25.1258 0C14.5461 0 5.96961 8.57653 5.96961 19.1562C3.23453 19.4968 0.648438 21.2847 0.648438 25.4352V35.439C0.648438 40.1216 3.92628 41.8244 7.03384 41.8244H10.1201C10.7078 41.8244 11.1844 41.3479 11.1844 40.7602V20.1566C11.1844 19.5689 10.7078 19.0924 10.1201 19.0924H8.09808C8.09808 9.68826 15.7217 2.06461 25.1258 2.06461C34.5299 2.06461 42.1536 9.68826 42.1536 19.0924H40.1315C39.5438 19.0924 39.0673 19.5689 39.0673 20.1566V40.7282C39.0673 41.316 39.5438 41.7925 40.1315 41.7925H42.1536C41.8556 49.1038 38.3436 50.8172 31.3303 51.1258V50.4128C31.3303 49.2372 30.3774 48.2843 29.2018 48.2843H22.5078C21.3322 48.2843 20.3793 49.2372 20.3793 50.4128V53.8715C20.3793 55.0471 21.3322 56 22.5078 56H29.2231C30.3987 56 31.3516 55.0471 31.3516 53.8715V53.2543C38.0988 52.9456 43.9308 51.5515 44.282 41.7286C47.0171 41.3881 49.6032 39.6002 49.6032 35.4496V25.4458C49.6032 21.274 47.0278 19.4968 44.282 19.1562ZM9.05589 21.1463V39.664H6.98063C5.40556 39.664 2.72369 39.1106 2.72369 35.4071V25.4033C2.72369 21.7317 5.37364 21.1463 6.98063 21.1463H9.05589V21.1463ZM29.2231 52.2645V53.8822H22.5078V50.4234H29.2231V52.2645ZM47.4747 35.439C47.4747 39.1106 44.8248 39.6959 43.2178 39.6959H41.1958V21.2208H43.271C44.8461 21.2208 47.528 21.7742 47.528 25.4778L47.4747 35.439Z" fill="#1D1D1B"/>
</svg>
