<svg width="48" height="56" viewBox="0 0 48 56" fill="none" xmlns="http://www.w3.org/2000/svg">
<g clip-path="url(#clip0_2804_10559)">
<path d="M31.4866 6.91981C30.9237 2.97509 27.4901 0 23.5001 0C20.934 0 18.497 1.23825 16.9818 3.3135C16.6723 3.73673 16.7649 4.33041 17.1881 4.6399C17.61 4.94828 18.205 4.8568 18.514 4.43302C19.6738 2.84606 21.5374 1.89839 23.4998 1.89839C26.5513 1.89839 29.1766 4.17246 29.6071 7.18759C29.6749 7.66115 30.0812 8.0029 30.5458 8.0029C30.5901 8.0029 30.6357 7.99956 30.681 7.99345C31.1999 7.9192 31.5605 7.43841 31.4866 6.91981Z" fill="#1D1D1B"/>
<path d="M45.1937 17.545L42.3462 12.7991C42.1749 12.513 41.866 12.3384 41.5323 12.3384H38.8036C38.2797 12.3384 37.8545 12.7635 37.8545 13.2874C37.8545 13.8113 38.2797 14.2365 38.8036 14.2365H40.9951L42.7036 17.0839H4.29324L6.00172 14.2365H7.00694C7.53083 14.2365 7.956 13.8113 7.956 13.2874C7.956 12.7635 7.53083 12.3384 7.00694 12.3384H5.46448C5.1308 12.3384 4.82186 12.513 4.65057 12.7991L1.80311 17.545C1.62709 17.8386 1.62292 18.2037 1.79116 18.5013C1.95939 18.7988 2.27472 18.9829 2.61703 18.9829H44.3798C44.7221 18.9829 45.0371 18.7988 45.2056 18.5013C45.3742 18.2037 45.3697 17.8381 45.1937 17.545Z" fill="#1D1D1B"/>
<path d="M40.4636 8.79341C40.3307 8.57902 40.1185 8.42691 39.8733 8.36963L26.9343 5.34338C26.6893 5.28581 26.4313 5.32864 26.2172 5.461C26.0036 5.59392 25.8512 5.80609 25.7939 6.05135L24.8182 10.2224C24.6986 10.7327 25.0156 11.2432 25.5262 11.3622C26.0364 11.4818 26.5475 11.1648 26.6665 10.6543L27.4262 7.40778L38.5166 10.0019L36.7739 17.4528C36.6543 17.9631 36.9713 18.4736 37.4819 18.5927C37.555 18.6096 37.6276 18.6177 37.6993 18.6177C38.1303 18.6177 38.5204 18.3224 38.6219 17.885L40.581 9.51C40.6388 9.26502 40.5965 9.00697 40.4636 8.79341Z" fill="#1D1D1B"/>
<path d="M24.0007 11.0374L23.1359 3.72272C23.1065 3.47274 22.9788 3.24444 22.7808 3.08872C22.5828 2.933 22.3329 2.86181 22.0818 2.89129L6.20666 4.76772C5.68639 4.82945 5.31433 5.30106 5.37578 5.82189L6.81758 18.0217C6.87486 18.5047 7.28446 18.8598 7.75913 18.8598C7.79611 18.8598 7.83421 18.8573 7.87203 18.8532C8.39202 18.7914 8.76408 18.3198 8.70291 17.799L7.37233 6.54098L21.3624 4.88757L22.1154 11.2596C22.1771 11.7801 22.6465 12.15 23.1696 12.091C23.6899 12.0298 24.0619 11.5579 24.0007 11.0374Z" fill="#1D1D1B"/>
<path d="M31.5075 17.6732L29.6236 9.83878C29.5646 9.59436 29.4108 9.38275 29.1964 9.25122C28.982 9.1208 28.7248 9.07993 28.4787 9.13832L13.1884 12.8155C12.6787 12.9379 12.365 13.4507 12.4874 13.9604L13.4289 17.8762C13.5513 18.3864 14.0641 18.7004 14.5735 18.5772C15.0832 18.4548 15.3969 17.9421 15.2745 17.4324L14.5546 14.4392L27.9993 11.2063L29.6614 18.1175C29.7656 18.5527 30.1549 18.8447 30.5835 18.8447C30.6571 18.8447 30.7317 18.8361 30.8065 18.818C31.3162 18.6954 31.6298 18.1829 31.5075 17.6732Z" fill="#1D1D1B"/>
<path d="M45.3303 17.9854C45.3042 17.4809 44.8876 17.085 44.3821 17.085H2.61935C2.11382 17.085 1.69727 17.4807 1.67113 17.9854L-0.227265 55.0022C-0.240613 55.262 -0.146624 55.5161 0.0324537 55.7047C0.21181 55.8929 0.460405 56 0.72068 56H46.2799C46.5399 56 46.7888 55.8932 46.969 55.7047C47.1478 55.5161 47.2418 55.2622 47.2287 55.0022L45.3303 17.9854ZM1.71951 54.1016L3.52058 18.9831H43.4797L45.2808 54.1016H1.71951Z" fill="#1D1D1B"/>
<path d="M30.6189 20.8813C29.0487 20.8813 27.7715 22.1585 27.7715 23.7288C27.7715 25.2991 29.0487 26.5763 30.6189 26.5763C32.1892 26.5763 33.4664 25.2991 33.4664 23.7288C33.4664 22.1585 32.1892 20.8813 30.6189 20.8813ZM30.6189 24.6781C30.0953 24.6781 29.6699 24.2524 29.6699 23.7291C29.6699 23.2057 30.0956 22.78 30.6189 22.78C31.1423 22.78 31.568 23.2057 31.568 23.7291C31.568 24.2524 31.1423 24.6781 30.6189 24.6781Z" fill="#1D1D1B"/>
<path d="M16.3807 20.8813C14.8104 20.8813 13.5332 22.1585 13.5332 23.7288C13.5332 25.2991 14.8104 26.5763 16.3807 26.5763C17.9509 26.5763 19.2281 25.2991 19.2281 23.7288C19.2281 22.1585 17.9509 20.8813 16.3807 20.8813ZM16.3807 24.6781C15.8573 24.6781 15.4316 24.2524 15.4316 23.7291C15.4316 23.2057 15.8573 22.78 16.3807 22.78C16.904 22.78 17.3297 23.2057 17.3297 23.7291C17.3297 24.2524 16.904 24.6781 16.3807 24.6781Z" fill="#1D1D1B"/>
<path d="M30.618 23.7285H30.5448C30.0209 23.7285 29.5958 24.1537 29.5958 24.6776C29.5958 24.8072 29.6214 24.9309 29.6689 25.0435V29.8978C29.6689 33.2995 26.9013 36.0674 23.4993 36.0674C20.0974 36.0674 17.3298 33.2997 17.3298 29.8978V24.6779C17.3298 24.154 16.9046 23.7288 16.3807 23.7288C15.8568 23.7288 15.4316 24.154 15.4316 24.6779V29.8981C15.4316 34.3467 19.0507 37.9658 23.4993 37.9658C27.9479 37.9658 31.567 34.3467 31.567 29.8981V24.6779C31.567 24.154 31.1419 23.7285 30.618 23.7285Z" fill="#1D1D1B"/>
</g>
<defs>
<clipPath id="clip0_2804_10559">
<rect width="48" height="56" fill="white"/>
</clipPath>
</defs>
</svg>
