<svg width="62" height="55" viewBox="0 0 62 55" fill="none" xmlns="http://www.w3.org/2000/svg">
<path d="M31.6473 22.9187C31.5178 22.8907 31.3849 22.8856 31.2537 22.9052C29.939 22.7522 28.9472 21.6399 28.945 20.3167C28.945 19.6827 28.4308 19.1685 27.7968 19.1685C27.1627 19.1685 26.6486 19.6827 26.6486 20.3167C26.6519 22.5262 28.1298 24.4616 30.2602 25.0463V26.1946C30.2602 26.8286 30.7743 27.3428 31.4084 27.3428C32.0425 27.3428 32.5566 26.8286 32.5566 26.1946V25.1159C35.0156 24.6012 36.6869 22.311 36.4285 19.8122C36.1694 17.3134 34.0642 15.4145 31.552 15.4139C30.1122 15.4139 28.945 14.2466 28.945 12.8069C28.945 11.3672 30.1122 10.1999 31.552 10.1999C32.9917 10.1999 34.159 11.3672 34.159 12.8069C34.159 13.441 34.6731 13.9551 35.3072 13.9551C35.9413 13.9551 36.4554 13.441 36.4554 12.8069C36.452 10.4869 34.8267 8.486 32.5566 8.00721V6.96217C32.5566 6.32808 32.0425 5.81396 31.4084 5.81396C30.7743 5.81396 30.2602 6.32808 30.2602 6.96217V8.07729C27.8909 8.72428 26.366 11.0246 26.6923 13.4589C27.0186 15.8933 29.0958 17.7103 31.552 17.7097C32.9726 17.7097 34.1315 18.8473 34.1573 20.2674C34.1836 21.6875 33.0668 22.8671 31.6473 22.9187V22.9187Z" fill="#1D1D1B"/>
<path d="M14.9023 16.6501C14.9023 25.8458 22.3567 33.3001 31.5524 33.3001C40.7481 33.3001 48.2024 25.8458 48.2024 16.6501C48.2024 7.45434 40.7481 0 31.5524 0C22.3612 0.0100916 14.913 7.45883 14.9023 16.6501ZM31.5524 2.2964C39.4799 2.2964 45.906 8.72253 45.906 16.6501C45.906 24.5776 39.4799 31.0037 31.5524 31.0037C23.6249 31.0037 17.1987 24.5776 17.1987 16.6501C17.2077 8.72645 23.6288 2.30537 31.5524 2.2964Z" fill="#1D1D1B"/>
<path d="M53.8633 36.1309L44.8689 40.3806C43.6271 38.0707 41.2449 36.6007 38.6233 36.5267L30.3202 36.2985C29.0054 36.261 27.7154 35.9279 26.5464 35.3241L25.7016 34.8863C21.3756 32.6314 16.2194 32.637 11.8979 34.9008L11.9506 32.9868C11.968 32.3527 11.4684 31.8246 10.8344 31.8072L1.72947 31.5566C1.09538 31.5392 0.567813 32.0387 0.550433 32.6728L0.000440099 52.6531C-0.0169398 53.2872 0.482595 53.8153 1.11669 53.8327L10.2216 54.0833H10.253C10.8753 54.0833 11.3843 53.5883 11.4012 52.9665L11.4275 52.0106L13.7929 50.7441C14.7213 50.2446 15.8067 50.1257 16.8209 50.4128L30.9458 54.3771C30.9705 54.3844 30.9952 54.39 31.0204 54.3956C32.0413 54.6092 33.0819 54.7163 34.1247 54.7157C36.3336 54.7169 38.5168 54.2409 40.5245 53.3192C40.5738 53.2968 40.6214 53.2704 40.6669 53.2407L61.1467 39.9937C61.6569 39.6635 61.8217 38.9936 61.5229 38.4643C60.0024 35.7665 56.6301 34.7388 53.8633 36.1309V36.1309ZM2.32768 51.5688L2.81432 33.8838L9.62336 34.0711L9.13672 51.7567L2.32768 51.5688ZM39.4901 51.2683C36.9958 52.3941 34.2099 52.7047 31.5289 52.157L17.4421 48.2027C15.8566 47.7548 14.1595 47.9403 12.7092 48.7202L11.5004 49.3677L11.8239 37.6093C15.6542 35.0617 20.5666 34.7999 24.6459 36.9253L25.4908 37.3632C26.9675 38.1257 28.5962 38.5462 30.2574 38.5944L38.5611 38.8226C40.8934 38.8898 42.8741 40.5505 43.3473 42.8357L30.9789 42.4942C30.3448 42.4768 29.8173 42.9769 29.7993 43.6105C29.7819 44.2446 30.282 44.7727 30.9156 44.7901L44.565 45.1657H44.597C45.2187 45.1651 45.7272 44.6701 45.7441 44.0489C45.7581 43.5499 45.7211 43.0504 45.6331 42.5593L54.8585 38.2002C54.8675 38.1963 54.8764 38.1918 54.8854 38.1873C56.1939 37.5252 57.7761 37.7467 58.8525 38.7429L39.4901 51.2683Z" fill="#1D1D1B"/>
</svg>
