<svg width="22" height="22" viewBox="0 0 22 22" fill="none" xmlns="http://www.w3.org/2000/svg">
<path d="M21.0947 17.3245L21.0951 17.3217C21.1409 17.0004 21.1216 16.6731 21.0383 16.3594C20.9551 16.0457 20.8097 15.7519 20.6107 15.4955L20.6034 15.4861L20.5948 15.478L20.5221 15.4098L20.5224 15.4094L20.5125 15.4016L17.7542 13.2204L17.7542 13.2203L17.7511 13.218C17.3067 12.8853 16.7616 12.7153 16.207 12.7364C15.6523 12.7576 15.1217 12.9686 14.704 13.3342L14.704 13.3341L14.6997 13.3382L13.568 14.4094C12.3779 14.1147 10.9278 13.2037 9.74151 12.0675C9.13721 11.4888 8.60643 10.8563 8.21673 10.2252C7.84125 9.61721 7.60173 9.01857 7.54656 8.47537L8.67698 7.28384L8.67712 7.28398L8.68208 7.27819C9.04169 6.85841 9.24691 6.32826 9.26365 5.77576C9.28039 5.22326 9.10765 4.68165 8.77412 4.24087L8.77414 4.24085L8.7722 4.23839L6.60111 1.49047C6.56962 1.44885 6.53158 1.41264 6.48848 1.38323C6.2336 1.18645 5.94203 1.04246 5.63082 0.95969C5.31797 0.876487 4.99162 0.85684 4.67106 0.901911L4.67105 0.901872L4.66766 0.902429C3.48376 1.09666 2.53663 1.5222 1.88374 2.1549C1.22812 2.79026 0.879297 3.62511 0.879297 4.61312C0.879297 8.99163 2.61865 13.1908 5.71473 16.2869C8.8108 19.383 13.01 21.1223 17.3885 21.1223C18.3765 21.1223 19.2114 20.7735 19.8463 20.1166C20.4785 19.4625 20.9028 18.5129 21.0947 17.3245ZM5.02239 2.10439L5.02236 2.10471L5.03219 2.10475C5.2744 2.10567 5.51062 2.17905 5.71055 2.31522L7.81771 4.97736C7.98115 5.19537 8.06645 5.46206 8.05986 5.73448C8.0533 6.00592 7.95587 6.26727 7.78324 6.47674L6.49613 7.83637L6.49556 7.83697C6.3912 7.94844 6.33289 8.09528 6.33236 8.24798V8.2485C6.33236 9.77397 7.4247 11.5037 8.86059 12.9013C10.3 14.3024 12.126 15.4103 13.6556 15.6672L13.656 15.6672C13.7479 15.6824 13.8421 15.6762 13.9313 15.6489C14.0202 15.6217 14.1017 15.5743 14.1694 15.5104C14.1695 15.5103 14.1696 15.5102 14.1697 15.5101L15.5299 14.2361C15.738 14.0596 15.9996 13.9584 16.2724 13.9489C16.5455 13.9394 16.8139 14.0224 17.034 14.1844L19.719 16.2963C19.891 16.5432 19.962 16.847 19.9169 17.145C19.8072 17.7936 19.5979 18.4899 19.2044 19.021C18.8159 19.5454 18.2455 19.9135 17.3885 19.9135C13.3306 19.9135 9.43888 18.3015 6.56951 15.4321C3.70014 12.5627 2.08814 8.67103 2.08814 4.61312C2.08814 3.75604 2.45627 3.18585 2.98078 2.79979C3.51068 2.40976 4.20539 2.2049 4.85389 2.10398C4.91 2.10037 4.96629 2.1005 5.02239 2.10439Z" fill="#DCDCDC" stroke="#DCDCDC" stroke-width="0.3"/>
</svg>
